<?xml version="1.0" standalone="no"?>
<!DOCTYPE svg PUBLIC "-//W3C//DTD SVG 20010904//EN"
 "http://www.w3.org/TR/2001/REC-SVG-20010904/DTD/svg10.dtd">
<svg version="1.0" xmlns="http://www.w3.org/2000/svg"
 width="700.000000pt" height="700.000000pt" viewBox="0 0 700.000000 700.000000"
 preserveAspectRatio="xMidYMid meet">
<metadata>
Created by potrace 1.14, written by Peter Selinger 2001-2017
</metadata>
<g transform="translate(0.000000,700.000000) scale(0.100000,-0.100000)"
fill="#000000" stroke="none">
<path d="M3280 6994 c-19 -2 -84 -9 -145 -14 -645 -63 -1299 -331 -1820 -746
-147 -117 -459 -431 -569 -574 -410 -529 -654 -1132 -728 -1795 -17 -155 -17
-575 0 -730 52 -469 197 -931 418 -1327 288 -519 734 -985 1234 -1291 450
-274 920 -434 1465 -499 142 -17 586 -17 730 0 810 94 1510 424 2074 976 597
586 943 1295 1043 2141 17 144 17 586 0 730 -86 723 -351 1347 -803 1885 -123
147 -374 391 -509 496 -532 413 -1098 647 -1760 730 -117 15 -552 27 -630 18z
m-40 -3229 l0 -1455 760 0 760 0 0 -175 0 -175 -960 0 -960 0 0 1630 0 1630
200 0 200 0 0 -1455z"/>
</g>
</svg>
